<svg xmlns="http://www.w3.org/2000/svg" xmlns:xlink="http://www.w3.org/1999/xlink" width="2000" zoomAndPan="magnify" viewBox="0 0 1500 1499.999933" height="2000" preserveAspectRatio="xMidYMid meet" version="1.0"><defs><clipPath id="414d5d9301"><path d="M 150 451.394531 L 1350 451.394531 L 1350 1048 L 150 1048 Z M 150 451.394531 " clip-rule="nonzero"/></clipPath></defs><rect x="-150" width="1800" fill="none" y="-149.999993" height="1799.99992" fill-opacity="1"/><rect x="-150" width="1800" fill="none" y="-149.999993" height="1799.99992" fill-opacity="1"/><g clip-path="url(#414d5d9301)"><path fill="#000000" d="M 796.28125 456.683594 C 792.378906 457.242188 788.476562 471.179688 780.667969 478.980469 C 775.09375 484.554688 768.402344 484.554688 764.5 490.6875 C 762.824219 492.917969 763.941406 497.378906 762.269531 501.28125 C 758.921875 509.640625 748.328125 510.753906 748.328125 519.117188 C 748.328125 528.59375 757.804688 530.824219 765.613281 537.511719 C 771.746094 543.085938 772.863281 546.988281 779.554688 549.21875 C 785.6875 551.449219 795.167969 544.757812 803.53125 546.988281 C 810.78125 549.21875 817.472656 550.890625 819.144531 557.582031 C 820.816406 564.269531 819.144531 574.304688 810.78125 573.1875 C 807.433594 573.1875 795.167969 568.730469 780.667969 569.84375 C 761.710938 572.074219 741.078125 577.648438 739.40625 598.273438 C 738.847656 609.980469 752.789062 622.800781 765.613281 620.570312 C 775.09375 618.898438 770.074219 607.191406 775.652344 602.175781 C 782.898438 595.484375 820.816406 626.144531 856.503906 626.144531 C 871.5625 626.144531 882.714844 622.242188 893.867188 610.535156 C 894.421875 609.980469 896.097656 607.191406 897.769531 607.191406 C 899.441406 607.191406 901.671875 608.863281 902.230469 609.421875 C 931.226562 632.277344 952.972656 677.984375 1057.804688 678.542969 C 1072.863281 678.542969 1089.589844 685.234375 1103.53125 698.054688 C 1115.800781 709.761719 1123.046875 727.039062 1129.738281 744.878906 C 1140.890625 771.636719 1159.292969 797.835938 1188.289062 826.265625 C 1189.960938 827.9375 1213.382812 846.332031 1215.613281 846.890625 C 1215.613281 846.890625 1217.84375 851.347656 1217.285156 853.578125 C 1216.726562 871.414062 1213.941406 921.585938 1252.417969 923.816406 C 1261.894531 924.371094 1259.664062 917.683594 1259.664062 913.222656 C 1259.664062 904.863281 1257.992188 895.386719 1263.011719 887.023438 C 1269.144531 874.761719 1249.628906 869.1875 1249.628906 842.429688 C 1250.1875 822.363281 1233.457031 825.707031 1224.535156 810.65625 C 1220.074219 802.292969 1215.054688 796.71875 1215.054688 786.128906 C 1216.730469 725.367188 1201.671875 685.234375 1194.980469 675.757812 C 1189.40625 667.953125 1183.828125 665.722656 1189.40625 661.820312 C 1221.1875 641.195312 1228.4375 621.683594 1228.4375 621.683594 C 1245.726562 582.664062 1260.222656 546.429688 1281.414062 530.824219 C 1285.316406 527.480469 1296.46875 519.117188 1303.160156 516.328125 C 1322.675781 506.855469 1332.714844 501.835938 1338.289062 496.261719 C 1346.652344 487.902344 1354.460938 469.503906 1346.097656 458.355469 C 1334.945312 444.421875 1317.101562 455.011719 1308.734375 460.585938 C 1250.1875 495.148438 1241.820312 555.351562 1221.746094 589.910156 C 1205.574219 617.78125 1179.925781 638.410156 1156.503906 640.082031 C 1138.660156 641.753906 1119.703125 637.851562 1101.300781 629.488281 C 1055.574219 609.421875 1030.484375 584.335938 1024.347656 579.320312 C 1012.082031 569.84375 916.726562 476.753906 839.21875 472.851562 C 839.21875 472.851562 829.738281 453.339844 827.507812 453.339844 C 821.933594 452.78125 815.800781 465.046875 811.894531 466.71875 C 806.878906 470.621094 800.1875 455.570312 796.28125 456.683594 Z M 456.132812 1010.773438 C 448.882812 1010.773438 443.308594 1004.644531 442.75 997.394531 L 442.75 757.699219 L 362.453125 757.699219 L 362.453125 1021.921875 C 362.453125 1035.300781 373.605469 1045.894531 385.875 1045.894531 L 524.722656 1045.894531 C 538.105469 1045.894531 548.140625 1035.300781 548.140625 1021.921875 L 548.140625 758.257812 L 469.515625 758.257812 L 469.515625 997.953125 C 468.960938 1005.199219 463.382812 1010.773438 456.132812 1010.773438 Z M 722.675781 758.257812 L 601.671875 758.257812 C 587.730469 758.257812 576.023438 769.960938 576.023438 783.898438 L 576.023438 1045.894531 L 655.203125 1045.894531 L 655.203125 806.195312 C 655.203125 798.390625 661.339844 792.816406 668.585938 792.816406 C 676.394531 792.816406 681.96875 798.390625 681.96875 806.195312 L 681.96875 1046.449219 L 761.152344 1046.449219 L 761.152344 805.082031 C 761.152344 798.390625 767.285156 791.703125 774.535156 791.703125 C 781.785156 791.703125 787.917969 797.835938 787.917969 805.082031 L 787.917969 1045.335938 L 867.101562 1045.335938 L 867.101562 783.339844 C 867.101562 768.847656 855.390625 757.699219 841.449219 757.699219 L 722.675781 757.699219 Z M 309.480469 973.425781 L 229.183594 973.425781 L 229.183594 1045.894531 L 150 1045.894531 L 150 758.257812 L 310.59375 758.257812 C 324.535156 758.257812 336.246094 769.960938 336.246094 784.457031 L 336.246094 947.785156 C 336.246094 962.277344 324.535156 973.425781 309.480469 973.425781 Z M 256.503906 806.195312 C 256.503906 798.390625 250.371094 792.261719 243.121094 792.261719 L 229.738281 792.261719 L 229.738281 937.75 L 243.121094 937.75 C 250.371094 937.75 256.503906 932.175781 256.503906 923.816406 Z M 994.796875 1047.007812 L 994.796875 975.097656 L 967.472656 975.097656 L 967.472656 1047.007812 L 887.730469 1047.007812 L 887.730469 786.128906 C 887.730469 771.636719 899.441406 761.042969 913.382812 761.042969 L 1047.769531 761.042969 C 1061.710938 761.042969 1073.421875 772.75 1073.421875 786.128906 L 1073.421875 1047.007812 Z M 994.796875 939.980469 L 994.796875 808.425781 C 994.796875 801.738281 988.660156 795.605469 981.414062 795.605469 C 974.164062 795.605469 968.03125 801.738281 968.03125 808.425781 L 968.03125 940.539062 Z M 994.796875 939.980469 " fill-opacity="1" fill-rule="nonzero"/></g><path fill="#000000" d="M 1145.910156 1043.664062 C 1124.164062 1043.664062 1106.878906 1026.382812 1106.878906 1004.644531 C 1106.878906 982.902344 1124.164062 965.621094 1145.910156 965.621094 C 1167.65625 965.621094 1184.945312 982.902344 1184.945312 1004.644531 C 1184.945312 1026.382812 1167.65625 1043.664062 1145.910156 1043.664062 Z M 1145.910156 971.753906 C 1127.507812 971.753906 1113.011719 986.804688 1113.011719 1004.644531 C 1113.011719 1022.480469 1128.066406 1037.53125 1145.910156 1037.53125 C 1163.753906 1037.53125 1178.808594 1022.480469 1178.808594 1004.644531 C 1178.808594 986.804688 1164.3125 971.753906 1145.910156 971.753906 Z M 1145.910156 971.753906 " fill-opacity="1" fill-rule="nonzero"/><path fill="#000000" d="M 1134.199219 988.476562 L 1147.027344 988.476562 C 1149.8125 988.476562 1152.042969 989.035156 1153.71875 990.707031 C 1155.949219 992.378906 1157.0625 994.609375 1157.0625 997.953125 C 1157.0625 1002.414062 1154.832031 1005.757812 1150.929688 1007.429688 L 1158.734375 1022.480469 L 1152.601562 1022.480469 L 1145.910156 1007.988281 L 1139.777344 1007.988281 L 1139.777344 1022.480469 L 1134.757812 1022.480469 L 1134.757812 988.476562 Z M 1139.21875 1003.527344 L 1147.027344 1003.527344 C 1148.699219 1003.527344 1150.371094 1002.96875 1151.488281 1001.855469 C 1152.601562 1000.742188 1153.160156 999.625 1153.160156 997.953125 C 1153.160156 996.28125 1152.601562 994.609375 1151.488281 994.050781 C 1150.371094 993.496094 1149.257812 992.9375 1147.582031 992.9375 L 1139.777344 992.9375 L 1139.777344 1003.527344 Z M 1139.21875 1003.527344 " fill-opacity="1" fill-rule="nonzero"/></svg>