<svg xmlns="http://www.w3.org/2000/svg" xmlns:xlink="http://www.w3.org/1999/xlink" width="2000" zoomAndPan="magnify" viewBox="0 0 1500 1499.999933" height="2000" preserveAspectRatio="xMidYMid meet" version="1.0"><path fill="#000000" d="M 746.40625 1046.558594 C 746.40625 1014.207031 772.765625 989.042969 803.917969 989.042969 C 835.074219 989.042969 861.433594 1015.402344 861.433594 1046.558594 C 861.433594 1077.710938 835.074219 1104.070312 803.917969 1104.070312 C 772.765625 1104.070312 746.40625 1078.910156 746.40625 1046.558594 M 982.453125 1046.558594 C 982.453125 1014.207031 1008.8125 989.042969 1039.96875 989.042969 C 1072.320312 989.042969 1097.480469 1015.402344 1097.480469 1046.558594 C 1097.480469 1077.710938 1071.121094 1104.070312 1039.96875 1104.070312 C 1008.8125 1105.269531 982.453125 1078.910156 982.453125 1046.558594 M 436.070312 1046.558594 C 436.070312 1014.207031 462.429688 989.042969 493.582031 989.042969 C 525.933594 989.042969 551.097656 1015.402344 551.097656 1046.558594 C 551.097656 1077.710938 524.734375 1104.070312 493.582031 1104.070312 C 461.230469 1105.269531 436.070312 1078.910156 436.070312 1046.558594 M 200.019531 1046.558594 C 200.019531 1014.207031 226.382812 989.042969 257.535156 989.042969 C 289.886719 989.042969 315.050781 1015.402344 315.050781 1046.558594 C 315.050781 1077.710938 288.6875 1104.070312 257.535156 1104.070312 C 226.382812 1105.269531 200.019531 1078.910156 200.019531 1046.558594 M 676.910156 944.710938 L 626.585938 944.710938 L 626.585938 1147.207031 L 676.910156 1147.207031 Z M 316.246094 1147.207031 L 366.570312 1147.207031 L 366.570312 944.710938 L 316.246094 944.710938 L 316.246094 961.484375 C 299.472656 949.503906 279.101562 942.3125 256.335938 942.3125 C 198.824219 942.3125 152.09375 989.042969 152.09375 1046.558594 C 152.09375 1105.269531 198.824219 1150.800781 256.335938 1150.800781 C 279.101562 1150.800781 299.472656 1143.613281 316.246094 1131.628906 Z M 1098.679688 1147.207031 L 1149.003906 1147.207031 L 1149.003906 944.710938 L 1098.679688 944.710938 L 1098.679688 961.484375 C 1081.90625 949.503906 1061.535156 942.3125 1038.769531 942.3125 C 981.253906 942.3125 934.523438 989.042969 934.523438 1046.558594 C 934.523438 1105.269531 981.253906 1150.800781 1038.769531 1150.800781 C 1061.535156 1150.800781 1081.90625 1143.613281 1098.679688 1131.628906 Z M 1166.976562 1081.304688 C 1168.175781 1122.042969 1202.925781 1150.800781 1261.636719 1150.800781 C 1309.566406 1150.800781 1349.105469 1130.433594 1349.105469 1084.898438 C 1349.105469 1052.546875 1331.132812 1034.574219 1290.394531 1026.1875 L 1258.042969 1020.195312 C 1237.671875 1016.601562 1223.292969 1011.808594 1223.292969 999.828125 C 1223.292969 986.648438 1237.671875 980.65625 1254.445312 980.65625 C 1279.609375 980.65625 1290.394531 993.835938 1290.394531 1008.214844 L 1340.71875 1008.214844 C 1338.320312 968.671875 1305.96875 942.3125 1254.445312 942.3125 C 1201.726562 942.3125 1170.570312 971.070312 1170.570312 1009.414062 C 1170.570312 1054.945312 1207.71875 1063.332031 1240.070312 1069.324219 L 1266.429688 1074.117188 C 1285.601562 1077.710938 1293.988281 1083.703125 1293.988281 1094.484375 C 1293.988281 1104.070312 1284.402344 1114.855469 1261.636719 1114.855469 C 1228.085938 1114.855469 1218.5 1098.082031 1217.300781 1082.503906 L 1166.976562 1082.503906 Z M 551.097656 875.214844 L 551.097656 960.285156 C 534.320312 948.304688 513.953125 941.113281 491.1875 941.113281 C 433.671875 941.113281 386.941406 987.84375 386.941406 1045.359375 C 386.941406 1104.070312 433.671875 1149.601562 491.1875 1149.601562 C 513.953125 1149.601562 534.320312 1142.414062 551.097656 1130.433594 L 551.097656 1144.8125 L 601.421875 1144.8125 L 601.421875 875.214844 Z M 862.632812 875.214844 L 862.632812 960.285156 C 845.855469 948.304688 825.488281 941.113281 802.722656 941.113281 C 745.207031 941.113281 698.476562 987.84375 698.476562 1045.359375 C 698.476562 1104.070312 745.207031 1149.601562 802.722656 1149.601562 C 825.488281 1149.601562 845.855469 1142.414062 862.632812 1130.433594 L 862.632812 1144.8125 L 912.957031 1144.8125 L 912.957031 875.214844 Z M 281.5 815.300781 L 316.246094 875.214844 L 551.097656 875.214844 L 457.636719 713.453125 Z M 676.910156 925.539062 L 676.910156 875.214844 L 862.632812 875.214844 L 664.925781 533.722656 L 488.789062 634.371094 L 626.585938 875.214844 L 626.585938 925.539062 Z M 936.921875 875.214844 L 1172.96875 875.214844 L 868.621094 348 L 692.484375 449.847656 Z M 936.921875 875.214844 " fill-opacity="1" fill-rule="nonzero"/></svg>