<svg xmlns="http://www.w3.org/2000/svg" xmlns:xlink="http://www.w3.org/1999/xlink" width="2000" zoomAndPan="magnify" viewBox="0 0 1500 1499.999933" height="2000" preserveAspectRatio="xMidYMid meet" version="1.0"><defs><clipPath id="9a96bd4910"><path d="M 150 540.546875 L 1350 540.546875 L 1350 959.796875 L 150 959.796875 Z M 150 540.546875 " clip-rule="nonzero"/></clipPath></defs><g clip-path="url(#9a96bd4910)"><path fill="#000000" d="M 1350 540.691406 L 472.570312 912.824219 C 399.519531 944.039062 337.960938 959.648438 288.714844 959.648438 C 232.898438 959.648438 192.679688 939.933594 167.238281 900.5 C 135.226562 849.570312 149.179688 768.242188 204.171875 681.988281 C 237.003906 631.875 278.863281 585.875 319.902344 541.515625 C 310.054688 557.121094 225.511719 698.417969 318.261719 764.957031 C 336.320312 778.101562 362.585938 784.671875 394.597656 784.671875 C 420.042969 784.671875 449.589844 780.566406 482.421875 772.351562 Z M 1350 540.691406 " fill-opacity="1" fill-rule="evenodd"/></g></svg>